HIERARCHY
ROOT SimulationBone
{
	OFFSET 0.000000 0.000000 0.000000
	CHANNELS 6 Xposition Yposition Zposition Zrotation Yrotation Xrotation 
	JOINT Hips
	{
		OFFSET 0.000000 0.000000 0.000000
		CHANNELS 6 Xposition Yposition Zposition Zrotation Yrotation Xrotation 
		JOINT LeftUpLeg
		{
			OFFSET 0.103458 1.857820 10.548502
			CHANNELS 3 Zrotation Yrotation Xrotation
			JOINT LeftLeg
			{
				OFFSET 43.500000 -0.000023 -0.000011
				CHANNELS 3 Zrotation Yrotation Xrotation
				JOINT LeftFoot
				{
					OFFSET 42.372192 0.000038 0.000002
					CHANNELS 3 Zrotation Yrotation Xrotation
					JOINT LeftToe
					{
						OFFSET 17.299992 -0.000004 0.000006
						CHANNELS 3 Zrotation Yrotation Xrotation
						End Site
						{
							OFFSET 0.000000 0.000000 0.000000
						}
					}
				}
			}
		}
		JOINT RightUpLeg
		{
			OFFSET 0.103461 1.857814 -10.548508
			CHANNELS 3 Zrotation Yrotation Xrotation
			JOINT RightLeg
			{
				OFFSET 43.500042 -0.000015 0.000008
				CHANNELS 3 Zrotation Yrotation Xrotation
				JOINT RightFoot
				{
					OFFSET 42.372253 0.000008 0.000006
					CHANNELS 3 Zrotation Yrotation Xrotation
					JOINT RightToe
					{
						OFFSET 17.299973 -0.000014 0.000011
						CHANNELS 3 Zrotation Yrotation Xrotation
						End Site
						{
							OFFSET 0.000000 0.000000 0.000000
						}
					}
				}
			}
		}
		JOINT Spine
		{
			OFFSET 6.901966 -2.603737 -0.000007
			CHANNELS 3 Zrotation Yrotation Xrotation
			JOINT Spine1
			{
				OFFSET 12.588102 0.000017 0.000001
				CHANNELS 3 Zrotation Yrotation Xrotation
				JOINT Spine2
				{
					OFFSET 12.343197 -0.000013 0.000000
					CHANNELS 3 Zrotation Yrotation Xrotation
					JOINT Neck
					{
						OFFSET 25.832905 -0.000008 0.000000
						CHANNELS 3 Zrotation Yrotation Xrotation
						JOINT Head
						{
							OFFSET 11.766610 0.000009 -0.000002
							CHANNELS 3 Zrotation Yrotation Xrotation
							End Site
							{
								OFFSET 0.000000 0.000000 0.000000
							}
						}
					}
					JOINT LeftShoulder
					{
						OFFSET 19.745903 -1.480377 6.000115
						CHANNELS 3 Zrotation Yrotation Xrotation
						JOINT LeftArm
						{
							OFFSET 11.284125 -0.000014 -0.000024
							CHANNELS 3 Zrotation Yrotation Xrotation
							JOINT LeftForeArm
							{
								OFFSET 33.000046 -0.000012 0.000029
								CHANNELS 3 Zrotation Yrotation Xrotation
								JOINT LeftHand
								{
									OFFSET 25.199989 0.000034 0.000012
									CHANNELS 3 Zrotation Yrotation Xrotation
									End Site
									{
										OFFSET 0.000000 0.000000 0.000000
									}
								}
							}
						}
					}
					JOINT RightShoulder
					{
						OFFSET 19.746098 -1.480362 -6.000071
						CHANNELS 3 Zrotation Yrotation Xrotation
						JOINT RightArm
						{
							OFFSET 11.284137 -0.000006 -0.000008
							CHANNELS 3 Zrotation Yrotation Xrotation
							JOINT RightForeArm
							{
								OFFSET 33.000095 0.000017 0.000000
								CHANNELS 3 Zrotation Yrotation Xrotation
								JOINT RightHand
								{
									OFFSET 25.199778 0.000144 0.000423
									CHANNELS 3 Zrotation Yrotation Xrotation
									End Site
									{
										OFFSET 0.000000 0.000000 0.000000
									}
								}
							}
						}
					}
				}
			}
		}
	}
}
MOTION
Frames: 6
Frame Time: 0.033333
-23.336305 0.000000 218.253787 0.000000 189.440593 0.000000 1.447648 89.183517 -1.858843 100.086255 -3.934878 -177.928709 175.941370 0.412001 -176.927048 -26.158320 -6.987905 -4.485273 80.154551 3.331368 0.042841 21.454558 0.003109 0.000017 164.843378 4.726502 -173.134039 -78.281242 -0.097864 6.375301 64.433730 -3.444617 3.035544 21.454560 -0.003092 0.000000 9.590857 -0.142015 -1.062413 9.170745 -0.199365 -2.132698 8.852880 -0.212376 -2.131464 19.612407 5.270242 -0.149818 -2.934267 -1.711950 0.238839 -167.202990 -73.949413 -14.535916 -19.537053 54.389353 20.139472 -36.009884 -17.547670 1.550464 9.934095 -6.128314 19.526174 -162.259531 72.520818 19.661505 -0.660613 -59.506657 -20.565233 -45.088053 18.573742 -1.834779 15.963180 1.639525 -49.008981 
-27.581987 0.000000 219.513561 0.000000 188.359041 0.000000 1.325020 89.492348 -1.884635 99.637416 -4.296149 -175.768124 179.833553 0.363909 -177.742668 -23.454047 -7.133115 -3.344965 81.436223 2.711780 0.836834 21.454558 0.003107 0.000017 160.173264 4.328599 -173.082485 -73.882266 1.213996 6.741256 65.537960 -3.887222 2.775018 21.454553 -0.003091 -0.000000 9.526990 -0.086878 -1.523827 9.041874 -0.054426 -3.049723 8.724283 -0.072969 -3.049347 19.339773 6.370816 0.070056 -3.755206 -2.084296 0.585723 -169.936022 -75.714867 -11.736325 -22.845472 53.710709 17.104571 -43.054634 -19.014593 1.832576 7.570044 -6.010093 22.021713 -159.501228 72.155628 22.500977 3.416106 -56.020846 -27.018575 -44.544339 17.124970 -1.723129 16.466406 -3.315326 -36.840473 
-31.832154 0.000000 220.704501 0.000000 187.288298 0.000000 1.180818 89.374207 -1.928476 99.056697 -4.759116 -173.828722 -176.796919 0.432907 -178.619692 -21.646343 -7.201058 -2.248830 83.118362 2.074457 1.461878 21.454560 0.003105 0.000017 156.492078 3.929306 -173.708144 -66.707179 2.662178 6.943019 66.540741 -4.310229 2.224590 21.454543 -0.003092 0.000000 9.485944 -0.067825 -1.950747 8.958801 0.015554 -3.900818 8.641528 -0.008120 -3.900847 18.439122 7.259775 0.238248 -4.305510 -1.879844 0.782273 -171.370020 -77.066110 -10.275075 -25.538132 52.130688 13.815742 -51.317202 -19.772254 2.143108 5.438084 -5.473911 24.201865 -158.092556 72.207729 23.947881 6.656838 -52.687895 -33.625715 -44.121226 16.133655 -1.645567 14.319217 -7.443909 -27.969905 
-36.085606 0.000000 221.831204 0.000000 186.223878 0.000000 1.098028 88.974983 -2.042291 98.831156 -5.400457 -172.361605 -173.050397 0.874604 -178.454716 -19.873557 -7.277580 -2.020021 84.828675 1.949267 1.725332 21.454560 0.003108 0.000017 154.574558 3.440199 -174.718247 -56.408576 3.586945 7.460384 66.738270 -4.872595 1.824646 21.454557 -0.003091 -0.000001 9.575034 -0.107669 -2.253489 9.137967 -0.037058 -4.508365 8.820964 -0.064392 -4.508066 17.297379 7.837120 0.128535 -4.673331 -1.578553 0.685127 -172.701046 -78.016115 -8.922183 -28.004066 49.823037 9.330315 -59.943803 -19.117211 2.410517 3.519323 -5.379086 26.514127 -156.753470 72.312613 25.321782 8.930733 -49.966881 -39.390743 -43.967485 15.521188 -1.600856 11.402337 -8.693519 -22.765637 
-40.341988 0.000000 222.894543 0.000000 185.162851 0.000000 1.106329 88.368874 -2.205645 98.869564 -6.101716 -171.413353 -169.092234 1.549698 -177.024064 -18.278143 -7.465219 -2.790854 86.733758 2.434807 1.664555 21.454558 0.003107 0.000017 154.689441 2.507904 -174.713507 -43.056765 2.848214 8.648402 66.896102 -5.633526 2.094585 21.454558 -0.003092 0.000000 9.738315 -0.224487 -2.401233 9.469153 -0.251685 -4.812697 9.152256 -0.280849 -4.811103 16.543215 8.692348 -0.023770 -5.327015 -1.550291 0.604664 -174.290022 -78.727711 -7.309343 -30.169939 47.030340 4.235418 -67.594025 -17.242476 2.584129 2.057616 -5.165456 28.797720 -155.596928 72.284397 26.510609 10.954233 -48.418033 -43.295043 -43.890236 15.017359 -1.565505 9.846762 -7.820129 -23.255971 
-44.596747 0.000000 223.896085 0.000000 184.093681 0.000000 1.118800 87.719414 -2.373698 98.740688 -6.733612 -170.808103 -165.285865 2.071197 -177.214490 -16.838868 -7.508339 -2.877105 88.252758 2.472041 1.677993 21.454558 0.003108 0.000017 156.542431 1.391099 -173.969576 -26.366007 1.610508 9.667850 65.838557 -5.843507 3.485390 21.454551 -0.003094 0.000001 9.854660 -0.359336 -2.469877 9.707662 -0.510127 -4.961148 9.390879 -0.540174 -4.957996 15.965951 9.186236 -0.121604 -5.483143 -1.293300 0.500443 -174.805059 -79.300381 -6.790277 -32.124825 44.830838 -1.026715 -73.650572 -15.164089 2.692245 0.712166 -5.547908 29.703929 -154.328206 72.330003 27.812669 12.738190 -48.263169 -45.175530 -43.581934 14.907113 -1.549464 10.122055 -6.860971 -27.309313 
